<svg xmlns="http://www.w3.org/2000/svg" viewBox="0 0 197.8 70.2"><path fill="#fff" d="M120.5 61.2c-2.6-.4-6.4-2.7-6.4-2.7l3.5-7.3c1.7 1.1 4 2 5.8 1.7 1.1-.2 3.1-1.8 3.1-2.5a615 615 0 0 0-13-31.2h11l7.8 18.2 7.4-18.1 10 .2-13.6 32.7c-2 4.7-5.3 7.7-9.3 8.7-1.8.4-4.7.6-6.3.3zM85.4 50c-3.5-1-6-2.8-7.1-5.4-.8-1.9-.8-5.3 0-7 1.1-2.5 3-4 6.3-5 1.6-.5 2.6-.6 7.3-.7l5.6-.1c-.1-1.3-.1-2.3-1.7-3.4-5-2.7-13.4 1-13.4 1l-3.5-7.1s5.4-4.6 19.4-3c3.5.9 6.8 3.4 8.2 6.2 1.3 2.7 1.5 4.3 1.5 14.7v9.6h-9.8v-3.7l-1.4 1.4c-1.9 2-3.6 2.6-7.3 2.7-1.8.1-3.3 0-4.1-.2zm8.6-6.7a4.6 4.6 0 0 0 3.4-4.6v-1.3c-2.5 0-5.8-.1-7.1.2-3.3 1-3 5 .4 5.9 1.3.3 2 .3 3.3-.2zm71.4 6.8c-3.3-.6-6.6-3-8-5.8-1.4-2.8-1.6-3.9-1.7-14.8l-.1-10.1h10.6v8.8c.2 9.1.3 10 1.4 11.4 1.2 1.6 4.1 2.2 6.1 1.3a5.5 5.5 0 0 0 2.9-2.8c.6-1 .6-1.4.7-10v-8.7H188v30.4h-10v-3.2a17.5 17.5 0 0 1-4.8 3c-2.6.5-5.3.9-7.7.5zM48 10.4l4 13-5.2 15.5-4.2-12.8-8 23.7H25l12.7-39.4zm16.3 0H75L62 49.8H51.3zM14.9 26.2 10 10.6h11.2l4.1 13-5.6 17.7z"/></svg>